<svg xmlns="http://www.w3.org/2000/svg" xmlns:xlink="http://www.w3.org/1999/xlink" width="22" height="22" version="1.0"><defs><radialGradient xlink:href="#a" id="b" cx="7.749" cy="13.905" r="6.687" fx="7.749" fy="13.905" gradientTransform="matrix(1 0 0 .12144 0 12.216)" gradientUnits="userSpaceOnUse"/><linearGradient id="a"><stop offset="0" style="stop-color:#000;stop-opacity:1"/><stop offset="1" style="stop-color:#000;stop-opacity:0"/></linearGradient></defs><rect width="18.983" height="12.969" x="1.517" y="4.5" rx="0" ry="0" style="opacity:1;fill:#729fcf;fill-opacity:1;fill-rule:evenodd;stroke:#2e3436;stroke-width:.99999994;stroke-linecap:square;stroke-linejoin:miter;stroke-miterlimit:4;stroke-dasharray:none;stroke-dashoffset:0;stroke-opacity:1"/><path d="M14.436 13.905a6.687.812 0 1 1-13.373 0 6.687.812 0 1 1 13.373 0" style="opacity:.2;fill:url(#b);fill-opacity:1;fill-rule:evenodd;stroke:none;stroke-width:1.17856777;stroke-linecap:square;stroke-linejoin:miter;stroke-miterlimit:4;stroke-dasharray:none;stroke-dashoffset:0;stroke-opacity:1" transform="matrix(1.4955 0 0 1.84722 -.59 -6.185)"/><path d="M2 13.667C12.5 13.667 9.5 12 20 12v5H2z" style="fill:#cee14b;fill-opacity:1;fill-rule:evenodd;stroke:none;stroke-width:1;stroke-linecap:square;stroke-linejoin:miter;stroke-miterlimit:4;stroke-dashoffset:0;stroke-opacity:1"/><path d="M5 6a1 1 0 1 1-2 0 1 1 0 1 1 2 0" style="opacity:1;fill:#fce94f;fill-opacity:1;fill-rule:evenodd;stroke:none;stroke-width:1;stroke-linecap:square;stroke-linejoin:miter;stroke-miterlimit:4;stroke-dasharray:none;stroke-dashoffset:0;stroke-opacity:1" transform="matrix(1.46011 0 0 1.5 -.3 -.5)"/><path d="M2.501 5.502h16.985v10.966H2.501z" style="opacity:.3;fill:none;fill-opacity:1;fill-rule:evenodd;stroke:#fff;stroke-width:.99999988;stroke-linecap:square;stroke-linejoin:miter;stroke-miterlimit:4;stroke-dasharray:none;stroke-dashoffset:0;stroke-opacity:1"/><path d="M13.073 7.118a2.526.982 0 1 1-5.053 0 2.526.982 0 1 1 5.053 0" style="opacity:1;fill:#eeeeec;fill-opacity:1;fill-rule:evenodd;stroke:none;stroke-width:1;stroke-linecap:square;stroke-linejoin:miter;stroke-miterlimit:4;stroke-dasharray:none;stroke-dashoffset:0;stroke-opacity:1" transform="matrix(1.4449 0 0 1.01786 -.588 .755)"/></svg>